<?xml version="1.0" encoding="UTF-8" standalone="no"?>
<!-- Created with Inkscape (http://www.inkscape.org/) -->

<svg
   xmlns:dc="http://purl.org/dc/elements/1.1/"
   xmlns:cc="http://creativecommons.org/ns#"
   xmlns:rdf="http://www.w3.org/1999/02/22-rdf-syntax-ns#"
   xmlns:svg="http://www.w3.org/2000/svg"
   xmlns="http://www.w3.org/2000/svg"
   xmlns:sodipodi="http://sodipodi.sourceforge.net/DTD/sodipodi-0.dtd"
   xmlns:inkscape="http://www.inkscape.org/namespaces/inkscape"
   width="297mm"
   height="210mm"
   viewBox="0 0 1052.3622 744.09448"
   id="svg2"
   version="1.1"
   inkscape:version="0.91 r"
   sodipodi:docname="Areas.svg">
  <defs
     id="defs4" />
  <sodipodi:namedview
     id="base"
     pagecolor="#ffffff"
     bordercolor="#666666"
     borderopacity="1.0"
     inkscape:pageopacity="0.0"
     inkscape:pageshadow="2"
     inkscape:zoom="3.1894576"
     inkscape:cx="899.61111"
     inkscape:cy="190.57945"
     inkscape:document-units="px"
     inkscape:current-layer="g3347"
     showgrid="false"
     inkscape:window-width="1366"
     inkscape:window-height="716"
     inkscape:window-x="0"
     inkscape:window-y="25"
     inkscape:window-maximized="1"
     showguides="false" />
  <metadata
     id="metadata7">
    <rdf:RDF>
      <cc:Work
         rdf:about="">
        <dc:format>image/svg+xml</dc:format>
        <dc:type
           rdf:resource="http://purl.org/dc/dcmitype/StillImage" />
        <dc:title />
      </cc:Work>
    </rdf:RDF>
  </metadata>
  <g
     inkscape:label="Layer 1"
     inkscape:groupmode="layer"
     id="layer1"
     transform="translate(0,-308.26772)">
    <g
       id="g3347"
       transform="translate(-745.12799,73.586278)">
      <path
         style="opacity:1;fill:#000000;fill-opacity:1;fill-rule:nonzero;stroke:none;stroke-width:1;stroke-miterlimit:4;stroke-dasharray:none;stroke-opacity:1"
         d="m 1161.8435,768.72883 c -3.3026,-0.005 -6.0258,0.0497 -7.834,0.31764 -3.9592,4.00965 -5.0304,3.64896 20.7207,3.98239 14.7817,0.1915 27.2362,0.4913 27.6765,0.66463 1.1972,0.47111 1.4913,-1.96496 0.4271,-3.53398 -0.6531,-0.9631 -15.9508,-1.48262 -29.6864,-1.38796 -4.1207,0.0283 -8.0014,-0.0373 -11.3039,-0.0428 z m 52.4757,0 c -3.3025,-0.005 -6.0284,0.0497 -7.8365,0.31764 -3.9591,4.00965 -5.0304,3.64896 20.7207,3.98239 14.7817,0.1915 27.2388,0.4913 27.6792,0.66463 1.1972,0.47111 1.4913,-1.96496 0.4271,-3.53398 -0.6532,-0.9631 -15.951,-1.48262 -29.6865,-1.38796 -4.1206,0.0283 -8.0014,-0.0373 -11.304,-0.0428 z m 52.0889,0 c -3.3026,-0.005 -6.0258,0.0497 -7.8341,0.31764 -3.9592,4.00965 -5.0301,3.64896 20.7209,3.98239 14.7818,0.1915 27.236,0.4913 27.6765,0.66463 1.1971,0.47111 1.4914,-1.96496 0.427,-3.53398 -0.6531,-0.9631 -15.9508,-1.48262 -29.6865,-1.38796 -4.1206,0.0283 -8.0014,-0.0373 -11.3038,-0.0428 z m 52.2649,0 c -3.3026,-0.005 -6.0284,0.0497 -7.8367,0.31764 -3.9591,4.00965 -5.0301,3.64896 20.7207,3.98239 14.7819,0.1915 27.2362,0.4913 27.6767,0.66463 1.1971,0.47111 1.494,-1.96496 0.4296,-3.53398 -0.6531,-0.9631 -15.9508,-1.48262 -29.6864,-1.38796 -4.1206,0.0283 -8.0013,-0.0373 -11.3039,-0.0428 z m -198.5112,0.0266 c -8.2414,0.0567 -15.9219,0.3342 -19.5384,0.87015 -12.3074,1.8232 -4.6325,3.05376 21.1184,3.38717 14.7817,0.19152 27.239,0.49131 27.6793,0.66462 1.1971,0.47112 1.4915,-1.96495 0.4271,-3.53398 -0.6531,-0.96308 -15.9509,-1.48261 -29.6864,-1.38796 z m 271.1419,0 c -13.7355,-0.0947 -29.0334,0.42488 -29.6865,1.38796 -1.0643,1.56903 -0.7701,4.0051 0.4271,3.53398 0.4404,-0.17331 12.8974,-0.4731 27.6792,-0.66462 25.751,-0.33341 33.426,-1.56397 21.1186,-3.38717 -3.6164,-0.53594 -11.297,-0.81343 -19.5384,-0.87015 z"
         id="rect4279"
         inkscape:connector-curvature="0" />
      <path
         style="opacity:1;fill:#000000;fill-opacity:1;fill-rule:nonzero;stroke:none;stroke-width:1;stroke-miterlimit:4;stroke-dasharray:none;stroke-opacity:1"
         d="m 907.84375,284.92578 c -3.6499,0.0265 -7.42754,0.18099 -11.33594,0.4668 -32.3444,2.36566 -90.86133,7.28206 -90.86133,14.66015 0,7.30516 35.8052,-4.40508 74.7754,-8.92578 72.27559,-8.38426 110.8796,21.10801 75.7207,49.69336 -5.5494,4.51197 -21.12307,13.73546 -32.70117,18.21289 -25.5926,9.8974 -101.11285,30.19819 -109.21875,29.22461 -3.2227,-0.38703 -23.32847,3.07356 -48.28907,4.7793 -51.338,3.50832 -100.56739,0.54273 -117.09179,-10.64844 -12.1198,-8.20821 -5.83048,-28.00489 6.60742,-38.11719 11.7489,-9.55275 96.831,-43.0656 122.7832,-48.93945 27.066,-6.12609 65.00749,-9.947 67.80959,-15.90277 4.6824,-9.95218 -118.20008,22.7089 -178.92678,51.56293 -30.1035,14.30349 -39.12503,25.5347 -34.80273,43.33398 2.501,10.30026 22.15753,21.44083 43.54883,24.67969 6.4457,0.97585 39.8454,1.09241 74.2207,0.25976 53.1026,-1.28628 69.25468,-3.28939 107.42188,-13.31445 61.3329,-16.10974 89.48894,-27.7521 104.49414,-43.21484 15.3854,-15.85461 15.9763,-25.55186 2.4082,-39.57617 -11.866,-12.26455 -31.0148,-18.41911 -56.5625,-18.23438 z"
         transform="translate(745.12799,234.68144)"
         id="rect4153-3-6-7-5-6"
         inkscape:connector-curvature="0"
         sodipodi:nodetypes="ccsscccsscsssccssscc" />
      <path
         style="opacity:1;fill:#000000;fill-opacity:1;fill-rule:nonzero;stroke:none;stroke-width:1;stroke-miterlimit:4;stroke-dasharray:none;stroke-opacity:1"
         d="m 1325.968,413.17699 c -3.6803,0.23858 -7.7298,12.38412 -14.5625,37.84766 -9.4749,35.31024 -9.2839,57.26896 0.2988,34.14258 2.9482,-7.11516 6.4902,-12.93164 7.8672,-12.93165 1.3768,0 3.5333,26.81618 4.793,59.59376 1.2598,32.77761 4.2602,61.10091 4.8183,63.6875 6.795,31.491 4.4501,31.491 6.795,31.491 2.7883,0 3.3838,-33.93917 1.7246,-46.30546 -1.3953,-10.3991 -3.6808,-36.37325 -5.0781,-57.71875 -2.5599,-39.11197 -0.3189,-45.94823 10.7011,-32.66992 8.2319,9.91872 12.5001,0.4658 5.8282,-12.9082 -3.3529,-6.72099 -9.3542,-25.05378 -13.3379,-40.74024 -3.804,-14.979 -6.5545,-23.05063 -9.4922,-23.47461 -0.1181,-0.017 -0.2368,-0.0214 -0.3555,-0.0137 z"
         id="rect4153-3-6-7-5-3-5"
         inkscape:connector-curvature="0"
         sodipodi:nodetypes="cssssssscssscc" />
      <path
         style="opacity:1;fill:#000000;fill-opacity:1;fill-rule:nonzero;stroke:none;stroke-width:1;stroke-miterlimit:4;stroke-dasharray:none;stroke-opacity:1"
         d="m 1239.0488,449.2317 c -18.9778,0.10568 -47.6398,24.15615 -54.7109,47.75781 -4.2086,14.04688 -3.5852,51.66575 1.2051,72.72656 2.2675,9.968 3.3372,18.91074 2.3769,19.8711 -0.9604,0.96036 -5.7203,-2.59183 -10.5781,-7.89258 -4.8578,-5.30074 -8.832,-8.11839 -8.832,-6.26172 0,5.13878 13.1067,21.45125 23.1425,28.80273 4.9169,3.60165 10.114,6.15855 11.5508,5.67969 1.4365,-0.47901 4.0747,-11.24399 5.8614,-23.92187 1.7868,-12.67788 3.9845,-26.82908 4.8828,-31.44532 1.2396,-6.36942 0.728,-8.39257 -2.1211,-8.39257 -2.4691,0 -4.8765,5.08417 -7.0313,14.8496 -4.5787,20.75139 -4.9738,21.81036 -7.5429,20.22266 -3.5499,-2.19394 -8.1298,-23.23835 -9.8165,-45.10937 -3.4374,-44.5757 17.1996,-75.5044 54.6739,-81.93946 l 28.1402,-0.40553 -25.6558,-3.77611 c 25.6558,3.77611 -3.5817,-0.77655 -5.545,-0.76562 z"
         id="rect4153-3-6-7-5-3"
         inkscape:connector-curvature="0"
         sodipodi:nodetypes="ssccssccscsscscccs" />
      <path
         style="opacity:1;fill:#000000;fill-opacity:1;fill-rule:nonzero;stroke:none;stroke-width:1;stroke-miterlimit:4;stroke-dasharray:none;stroke-opacity:1"
         d="m 1265.9522,709.78207 c -9.3128,-0.013 -18.6659,-0.009 -27.8867,0.0144 -44.2598,0.11072 -85.4995,0.65301 -104.9215,1.69728 -66.0964,3.55399 -24.8786,5.95318 113.4163,6.60306 79.3851,0.37301 146.274,0.95617 148.6394,1.2941 6.4285,0.91838 8.01,-3.83207 2.2949,-6.89062 -3.0694,-1.64266 -66.3516,-2.62238 -131.5424,-2.71793 z"
         id="rect4153-3-6"
         inkscape:connector-curvature="0" />
      <path
         style="opacity:1;fill:#000000;fill-opacity:1;fill-rule:nonzero;stroke:none;stroke-width:1;stroke-miterlimit:4;stroke-dasharray:none;stroke-opacity:1"
         d="m 1693.5376,704.41978 c -14.5122,-1.47994 -35.5296,14.75977 -51.6489,39.88965 l -13.257,-7.97046 c -15.2375,-9.97986 -38.6343,-23.03344 -51.2274,-24.91506 -64.4133,-9.62443 -40.4172,51.65079 -27.3247,77.19134 7.9622,15.5326 37.5845,45.3129 37.5845,45.3129 0,0 47.384,38.07212 48.7934,38.13811 1.4094,0.0662 16.2259,-11.56723 32.9258,-25.85156 43.4375,-37.1544 62.9465,-68.41873 62.9941,-100.94922 0.038,-26.30299 -18.0763,-38.72825 -38.8398,-40.8457 z m -0.9883,9.82422 c 9.56,-0.0423 18.1527,4.27015 23.7851,13.50781 8.2782,13.57716 8.1885,35.29877 -0.2187,52.66601 -8.12,16.77372 -39.9175,51.90029 -60.961,67.34766 -17.9389,13.1684 -20.2066,13.48363 -36.2519,5.00586 -35.455,-18.733 -77.04,-75.32735 -79.4077,-112.46011 -3.1107,-48.78393 72.6907,-14.94801 107.8151,22.22085 0,0 0.1429,-11.54231 3.0141,-16.67268 12.0824,-21.5899 26.2919,-31.54499 42.225,-31.6154 z"
         id="rect4153-3-6-7-5"
         inkscape:connector-curvature="0"
         sodipodi:nodetypes="sccssccscsssssssscs" />
      <path
         style="opacity:1;fill:#000000;fill-opacity:1;fill-rule:nonzero;stroke:none;stroke-width:1;stroke-miterlimit:4;stroke-dasharray:none;stroke-opacity:1"
         d="m 824.85352,51.705078 c -109.391,0 -113.7299,0.237123 -118.3086,6.501953 -3.1197,4.26863 -4.0008,9.912172 -2.5625,16.419922 1.2052,5.45293 2.39523,20.587936 2.64063,33.634767 0.4896,26.03384 2.14902,29.17224 16.70312,31.58398 13.2497,2.19562 94.66715,-0.5636 131.33985,-4.44922 16.2534,-1.72211 39.62284,-3.1547 51.93164,-3.1875 34.3532,-0.0896 50.48835,0.31212 49.27625,-43.355464 L 938.40234,51.705078 Z m 47.13867,8.777344 c 28.5511,-0.0131 50.47664,0.420712 54.08984,1.476562 4.8504,1.41735 18.07487,20.821877 18.07486,42.877086 0,25.02551 -12.68364,11.19449 -20.75064,14.26159 -4.6324,1.76124 -18.29859,3.21174 -30.37109,3.22851 -12.0725,0.0149 -34.50898,1.36756 -49.85938,3.00391 -43.6848,4.65678 -120.67705,7.53109 -122.37695,4.57031 -0.8454,-1.47229 -2.55784,-12.05038 -3.80664,-23.50586 -1.2488,-11.455489 -3.71422,-24.623181 -5.47852,-29.263671 -2.1747,-5.71955 -2.07375,-9.568795 0.31055,-11.953125 2.4794,-2.47942 97.35517,-4.668032 160.16797,-4.695312 z"
         transform="translate(745.12799,234.68144)"
         id="rect4153-3-6-7"
         inkscape:connector-curvature="0"
         sodipodi:nodetypes="sssssscccscssscscscsc" />
      <path
         style="opacity:1;fill:#000000;fill-opacity:1;fill-rule:nonzero;stroke:none;stroke-width:1;stroke-miterlimit:4;stroke-dasharray:none;stroke-opacity:1"
         d="m 938.16223,522.94872 c -10.79011,0.0466 -20.0619,1.59892 -23.37557,4.64062 -2.83882,2.60593 -9.13082,4.75143 -13.98264,4.76758 -15.93504,0.0558 -50.6213,14.71787 -63.93825,27.02539 -16.77724,15.50568 -25.75795,35.82088 -25.64258,58.00196 0.18818,36.53586 34.748,70.22398 86.49239,84.31054 25.06569,6.82368 65.82083,5.39295 89.92658,-3.1582 55.35914,-19.63782 75.80104,-74.23458 45.84384,-122.4375 -12.138,-19.53092 -40.72953,-41.7138 -62.84071,-48.75195 -9.38378,-2.98686 -21.69282,-4.445 -32.48306,-4.39844 z m -16.34015,15.65625 c 22.76304,0.0143 47.07644,1.615 54.3295,4.50976 27.94492,11.15292 51.23142,39.32592 56.91212,68.85743 6.1146,31.78696 -16.2268,67.38347 -49.11326,78.25195 -56.24694,18.5889 -120.84176,2.04193 -150.24736,-38.48828 -15.78106,-21.75142 -17.0719,-53.5964 -2.99793,-73.9082 9.84765,-14.21255 33.68296,-31.634 49.57273,-36.23633 7.07643,-2.04969 23.8397,-2.99703 41.5442,-2.98633 z"
         id="rect4153"
         inkscape:connector-curvature="0" />
      <path
         style="opacity:1;fill:#000000;fill-opacity:1;fill-rule:nonzero;stroke:none;stroke-width:1;stroke-miterlimit:4;stroke-dasharray:none;stroke-opacity:1"
         d="m 1061.8523,274.28578 c -7.3319,-0.0235 -17.0098,0.52572 -29.7734,1.32227 -47.74123,2.9794 -89.00964,9.18537 -136.67777,20.55078 -15.6909,3.74114 -44.07756,7.96708 -63.08204,9.38867 l -34.55273,2.58398 1.28711,48.70508 c 0.72308,27.36283 -0.99407,62.08598 -3.91602,79.23633 -4.80484,28.20134 -4.62898,31.1521 2.3125,38.71679 10.49769,11.44036 34.42602,10.71454 118.43555,-3.59179 38.04734,-6.47924 100.1948,-15.5993 138.1055,-20.26563 37.9106,-4.66633 70.4633,-9.42059 72.3398,-10.56445 5.5184,-3.36364 3.9076,-9.64258 -2.4726,-9.64258 -8.2758,0 -18.5684,-15.8504 -18.5684,-28.5918 0,-5.89825 -4.5837,-28.12498 -10.1875,-49.39648 -5.6039,-21.27151 -10.2212,-45.43664 -10.2559,-53.69922 -0.081,-19.4253 -0.9986,-24.68145 -22.9941,-24.75195 z m -11,14.01172 c 8.5902,0.069 14.2812,0.72803 15.6758,2.10352 2.2313,2.20073 6.1396,15.23123 8.6875,28.95507 2.5482,13.72382 7.4253,37.6148 10.8379,53.08984 11.7957,53.49274 12.0673,57.44262 4.08,59.79883 -3.992,1.17755 -37.5184,6.00041 -74.5039,10.7168 -36.98525,4.71636 -90.87461,12.93731 -119.75386,18.26758 -80.03486,14.77225 -96.94686,12.26223 -90.23438,-13.39649 1.59375,-6.09219 4.10237,-37.30392 5.57422,-69.35937 l 2.67383,-58.28516 25.86133,-2.81054 c 14.22323,-1.54713 46.53028,-7.38647 71.79687,-12.97656 39.32383,-8.70016 103.25399,-15.76333 135.44919,-16.09766 1.3415,-0.0139 2.6283,-0.0157 3.8555,-0.006 z"
         id="rect4150"
         inkscape:connector-curvature="0" />
      <path
         style="opacity:1;fill:#000000;fill-opacity:1;fill-rule:nonzero;stroke:none;stroke-width:1;stroke-miterlimit:4;stroke-dasharray:none;stroke-opacity:1"
         d="m 926.43827,761.13865 c -7.94542,0.29702 -55.04439,12.18311 -64.09571,15.92383 -40.1032,16.57387 -60.85298,54.7653 -69.24414,78.29883 -2.70284,8.41241 -1.94671,16.14872 -0.56836,21.30664 5.54644,20.75517 24.83807,30.5602 60.19532,37.3418 13.61574,2.61148 25.42302,3.90598 37.3164,3.88476 11.89339,-0.0212 23.87389,-1.36077 37.83203,-4.02148 35.1034,-6.69146 74.51159,-24.62167 89.52539,-40.65821 17.2836,-12.32794 29.1425,-26.07554 34.168,-40.16992 3.8967,-10.9287 3.9344,-12.37427 0.5664,-21.30664 -7.4565,-19.77506 -24.838,-30.56021 -60.19533,-37.3418 -13.6157,-2.61147 -25.42303,-3.90598 -37.31641,-3.88476 -11.8934,0.0212 -23.87389,1.36077 -37.83203,4.02148 -39.46113,7.52214 -66.94494,21.42115 -76.50977,38.69141 -5.64686,10.19596 -2.71498,9.76337 8.72852,-1.28711 22.65962,-21.88153 56.87598,-31.82761 108.02344,-31.40234 38.677,0.32157 63.16938,5.9764 78.80468,18.19726 8.7697,6.85459 13.5102,19.60603 11.3633,30.56836 -2.54,12.96953 -18.2193,29.71787 -40.2891,44.67188 -0.7359,0.35948 -1.468,0.72102 -2.2519,1.07226 -26.87323,12.04067 -65.87992,33.25144 -117.02737,32.82617 -38.67703,-0.32158 -63.16948,-5.97445 -78.80469,-18.19531 -8.76974,-6.85458 -13.51021,-19.60798 -11.36328,-30.57031 3.82379,-19.52488 32.1593,-61.22513 72.60547,-78.83985 11.76697,-5.12459 54.66601,-17.24023 54.66601,-17.24023 3.28539,-1.40851 3.53669,-1.95526 1.70313,-1.88672 z"
         id="rect4153-3"
         inkscape:connector-curvature="0" />
      <path
         inkscape:connector-curvature="0"
         id="path4171"
         d="m 938.16223,522.94872 c -10.79011,0.0466 -20.0619,1.59892 -23.37557,4.64062 -2.83882,2.60593 -9.13082,4.75143 -13.98264,4.76758 -15.93504,0.0558 -50.6213,14.71787 -63.93825,27.02539 -16.77724,15.50568 -25.75795,35.82088 -25.64258,58.00196 0.18818,36.53586 34.748,70.22398 86.49239,84.31054 25.06569,6.82368 65.82083,5.39295 89.92658,-3.1582 55.35914,-19.63782 75.80104,-74.23458 45.84384,-122.4375 -12.138,-19.53092 -40.72953,-41.7138 -62.84071,-48.75195 -9.38378,-2.98686 -21.69282,-4.445 -32.48306,-4.39844 z m -16.34015,15.65625 c 22.76304,0.0143 63.5148,2.98486 70.76786,5.87962 27.94496,11.15292 40.89606,31.61452 40.47376,67.48757 -0.381,32.36748 -16.2268,67.38347 -49.11326,78.25195 -56.24694,18.5889 -120.84176,2.04193 -150.24736,-38.48828 -15.78106,-21.75142 -17.0719,-53.5964 -2.99793,-73.9082 9.84765,-14.21255 33.68296,-31.634 49.57273,-36.23633 7.07643,-2.04969 23.8397,-2.99703 41.5442,-2.98633 z"
         style="opacity:1;fill:#000000;fill-opacity:1;fill-rule:nonzero;stroke:none;stroke-width:1;stroke-miterlimit:4;stroke-dasharray:none;stroke-opacity:1"
         sodipodi:nodetypes="sccscssssscssssssc" />
      <path
         style="opacity:1;fill:#000000;fill-opacity:1;fill-rule:nonzero;stroke:none;stroke-width:1;stroke-miterlimit:4;stroke-dasharray:none;stroke-opacity:1"
         d="m 1403.02,343.95721 c -0.2386,-3.6803 -12.3842,-7.7298 -37.8477,-14.5625 -35.3102,-9.4749 -57.2689,-9.2839 -34.1426,0.2988 7.1152,2.9482 3.3426,-1.72898 3.3426,-0.35198 0,0.7692 1.043,9.99788 -12.0594,10.96138 -0.2162,-0.018 -0.3979,-0.03 -0.6172,-0.049 -2.6367,-0.2226 -31.1118,0.4269 -63.7812,3.3711 -3.8906,0.3505 -7.6822,0.6725 -11.3731,0.9746 -0.6379,0.05 -1.2725,0.1 -1.8925,0.1504 -26.3525,2.1177 -33.9709,4.29036 -34.1224,3.11586 -0.1762,-1.3656 -7.1899,-6.99256 -0.5104,-10.82686 21.7102,-12.4628 -0.093,-9.8444 -33.9004,4.0703 -24.3801,10.0344 -35.9081,15.6046 -35.6739,19.2852 0.01,0.1187 0.028,0.2365 0.061,0.3515 0.7964,2.8593 9.1535,4.5539 24.4961,6.4102 16.0673,1.944 35.0166,5.5501 42.1114,8.0156 14.1177,4.9059 22.947,-0.5364 12.0566,-7.4316 -8.7076,-5.5131 -9.8914,-8.8371 -1.1035,-11.1465 6.8322,-0.056 13.3248,-0.3513 17.4316,-0.9023 9.1619,-1.2293 30.3135,-3.1186 49.8379,-4.5137 9.5256,-0.37 17.8989,-0.6027 22.7598,-0.5781 3.2363,0.016 7.9017,-0.3071 13.0176,-0.8379 13.5031,0.6122 13.8269,4.039 4.7734,11.5527 -9.9187,8.2319 -0.4658,12.5 12.9082,5.8281 6.721,-3.3529 25.0538,-9.3542 40.7402,-13.3379 14.979,-3.804 23.0507,-6.5544 23.4746,-9.4921 0.017,-0.1181 0.021,-0.2368 0.014,-0.3555 z"
         id="rect4153-3-6-7-5-3-5-2"
         inkscape:connector-curvature="0"
         sodipodi:nodetypes="csssccccccssccssscscccsssccc" />
    </g>
  </g>
</svg>
